<svg xmlns="http://www.w3.org/2000/svg" id="chat" width="32.17" height="32.17" viewBox="0 0 32.17 32.17">
    <defs>
        <linearGradient id="linear-gradient" x1=".316" x2=".949" y1=".784" y2=".15" gradientUnits="objectBoundingBox">
            <stop offset="0" stop-color="#fff"/>
            <stop offset="1" stop-color="#f8f8ff"/>
        </linearGradient>
        <linearGradient id="linear-gradient-2" x1=".758" x2="-.267" y1=".176" y2="1.201" gradientUnits="objectBoundingBox">
            <stop offset="0" stop-color="#fff" stop-opacity="0"/>
            <stop offset="1" stop-color="#afafaf"/>
        </linearGradient>
        <style>
            .cls-2{fill:url(#linear-gradient-2)}.cls-3{fill:#eb173c}
        </style>
    </defs>
    <path id="Path_82606" fill="url(#linear-gradient)" d="M16.336 9.886A16.1 16.1 0 0 0 .377 29.448a29.174 29.174 0 0 1 .723 6.281v4.088a1.134 1.134 0 0 0 1.134 1.134h4.091a29.175 29.175 0 0 1 6.281.726 16.087 16.087 0 1 0 3.73-31.791z" transform="translate(0 -9.884)"/>
    <path id="Path_82607" d="M81.4 195.464a2.489 2.489 0 1 0-3.518 3.518l5.375 5.375a2.489 2.489 0 1 0 3.518-3.518z" class="cls-2" transform="translate(-71.073 -180.241)"/>
    <circle id="Ellipse_5798" cx="2.492" cy="2.492" r="2.492" class="cls-3" transform="translate(6.023 14.437)"/>
    <path id="Path_82608" d="M171.59 195.464a2.489 2.489 0 1 0-3.518 3.518l5.375 5.375a2.489 2.489 0 1 0 3.518-3.518z" class="cls-2" transform="translate(-154.217 -180.241)"/>
    <circle id="Ellipse_5799" cx="2.492" cy="2.492" r="2.492" class="cls-3" transform="translate(13.069 14.437)"/>
    <path id="Path_82609" d="M261.779 195.464a2.489 2.489 0 1 0-3.518 3.518l5.375 5.375a2.489 2.489 0 1 0 3.518-3.518z" class="cls-2" transform="translate(-237.36 -180.241)"/>
    <circle id="Ellipse_5800" cx="2.492" cy="2.492" r="2.492" class="cls-3" transform="translate(20.116 14.437)"/>
</svg>
