<svg xmlns="http://www.w3.org/2000/svg" xmlns:xlink="http://www.w3.org/1999/xlink" width="132" height="132" viewBox="0 0 132 132">
  <defs>
    <style>
      .cls-1, .cls-6 {
        fill: none;
      }

      .cls-1 {
        stroke: #707070;
      }

      .cls-2 {
        clip-path: url(#clip-path);
      }

      .cls-3 {
        fill: #fff5e2;
      }

      .cls-4 {
        fill: #ffc14a;
      }

      .cls-5 {
        fill: #d99c25;
      }

      .cls-7 {
        fill: #fff;
      }

      .cls-8 {
        fill: #5c5e78;
      }
    </style>
    <clipPath id="clip-path">
      <rect id="Rectangle_22931" data-name="Rectangle 22931" class="cls-1" width="132" height="132" transform="translate(894 426)"/>
    </clipPath>
  </defs>
  <g id="Mask_Group_612" data-name="Mask Group 612" class="cls-2" transform="translate(-894 -426)">
    <g id="warning" transform="translate(900.063 427.889)">
      <g id="bg" transform="translate(2.335 0.611)">
        <g id="Group_22243" data-name="Group 22243">
          <path id="Path_34479" data-name="Path 34479" class="cls-3" d="M94.486,12.746C69.08,13.22,51.382.383,39.14.614S1.313,8.363,2.367,64.689s35.8,63.943,49.268,63.693C114.693,127.2,139.485,11.9,94.486,12.746Z" transform="translate(-2.335 -0.611)"/>
        </g>
      </g>
      <g id="color" transform="translate(18.555 20.41)">
        <g id="Group_22244" data-name="Group 22244" transform="translate(0 2.756)">
          <circle id="Ellipse_3581" data-name="Ellipse 3581" class="cls-4" cx="41.333" cy="41.333" r="41.333"/>
        </g>
        <g id="Group_22245" data-name="Group 22245" transform="translate(0 2.756)">
          <path id="Path_34480" data-name="Path 34480" class="cls-5" d="M15.017,48.083a41.333,41.333,0,0,1,37.2-41.123c-1.359-.136-2.737-.209-4.133-.209a41.333,41.333,0,1,0,0,82.665c1.4,0,2.774-.073,4.133-.209A41.333,41.333,0,0,1,15.017,48.083Z" transform="translate(-6.75 -6.75)"/>
        </g>
        <g id="Group_22246" data-name="Group 22246" transform="translate(37.659 62.458)">
          <circle id="Ellipse_3582" data-name="Ellipse 3582" class="cls-6" cx="3.674" cy="3.674" r="3.674"/>
        </g>
        <g id="Group_22247" data-name="Group 22247" transform="translate(79.91)">
          <path id="Path_34481" data-name="Path 34481" class="cls-4" d="M34.011,17.022a5.511,5.511,0,1,1,5.511-5.511A5.518,5.518,0,0,1,34.011,17.022Zm0-7.348a1.837,1.837,0,1,0,1.837,1.837A1.838,1.838,0,0,0,34.011,9.674Z" transform="translate(-28.5 -6)"/>
        </g>
      </g>
      <g id="regular" transform="translate(15.799 20.41)">
        <g id="Group_22248" data-name="Group 22248" transform="translate(39.204 55.248)">
          <path id="Path_34482" data-name="Path 34482" class="cls-7" d="M21.384,32.268a4.884,4.884,0,1,1,4.884-4.884A4.89,4.89,0,0,1,21.384,32.268Zm0-6.512a1.628,1.628,0,1,0,1.628,1.628A1.629,1.629,0,0,0,21.384,25.756Z" transform="translate(-16.5 -22.5)"/>
        </g>
        <g id="Group_22249" data-name="Group 22249" transform="translate(41.333 22.202)">
          <path id="Path_34483" data-name="Path 34483" class="cls-7" d="M17.25,11.75h5.511V39.9H17.25Z" transform="translate(-17.25 -11.75)"/>
        </g>
        <g id="Group_22250" data-name="Group 22250">
          <path id="Path_34484" data-name="Path 34484" class="cls-8" d="M50.088,94.176A44.088,44.088,0,1,1,94.176,50.088,44.137,44.137,0,0,1,50.088,94.176Zm0-82.665A38.577,38.577,0,1,0,88.665,50.088,38.619,38.619,0,0,0,50.088,11.511Z" transform="translate(-6 -6)"/>
        </g>
      </g>
    </g>
  </g>
</svg>
