<svg xmlns="http://www.w3.org/2000/svg" xmlns:xlink="http://www.w3.org/1999/xlink" width="36" height="36" viewBox="0 0 36 36">
  <defs>
    <clipPath id="clip-path">
      <rect id="Rectangle_41414" data-name="Rectangle 41414" width="36" height="36" transform="translate(-22452 -18694)" fill="#fff" stroke="#707070" stroke-width="1"/>
    </clipPath>
    <clipPath id="clip-path-2">
      <path id="Shield_Done" data-name="Shield Done" d="M11.294,26.323a1,1,0,0,1-.465-.114L6.09,23.757a11.132,11.132,0,0,1-3.22-2.392,10.859,10.859,0,0,1-2.815-7.2L0,5.428A2.386,2.386,0,0,1,1.617,3.176L10.32.14A2.487,2.487,0,0,1,11.939.131l8.736,2.931a2.382,2.382,0,0,1,1.644,2.232l.056,8.74a10.847,10.847,0,0,1-2.719,7.233,11.119,11.119,0,0,1-3.188,2.428l-4.7,2.51a1.036,1.036,0,0,1-.471.118ZM7.764,11.855a1,1,0,0,0-.709.288.95.95,0,0,0,.009,1.368l2.522,2.426a1,1,0,0,0,.7.28h.009a1,1,0,0,0,.7-.288l5.131-5.059A.95.95,0,0,0,16.116,9.5a1.012,1.012,0,0,0-1.4.007l-4.434,4.371L8.461,12.133A1,1,0,0,0,7.764,11.855Z" transform="translate(0 0)" fill="#f8f8f8"/>
    </clipPath>
    <filter id="Rectangle_41409" x="-16.863" y="-18.271" width="78.544" height="78.544" filterUnits="userSpaceOnUse">
      <feOffset dx="3" dy="3" input="SourceAlpha"/>
      <feGaussianBlur stdDeviation="3" result="blur"/>
      <feFlood flood-color="#2b4fd8" flood-opacity="0.161"/>
      <feComposite operator="in" in2="blur"/>
      <feComposite in="SourceGraphic"/>
    </filter>
    <clipPath id="clip-path-3">
      <rect id="Rectangle_41412" data-name="Rectangle 41412" width="60.544" height="60.544" rx="10" fill="#f8f8f8"/>
    </clipPath>
    <filter id="Subtraction_257" x="-11.863" y="-13.271" width="66.544" height="66.544" filterUnits="userSpaceOnUse">
      <feOffset dx="2" dy="2" input="SourceAlpha"/>
      <feGaussianBlur stdDeviation="1" result="blur-2"/>
      <feFlood flood-color="#00209a"/>
      <feComposite operator="in" in2="blur-2"/>
      <feComposite in="SourceGraphic"/>
    </filter>
  </defs>
  <g id="_09_bao_hiem_active" data-name="09_bao_hiem_active" transform="translate(22452 18694)" clip-path="url(#clip-path)">
    <g id="Mask_Group_22669" data-name="Mask Group 22669" transform="translate(-22444.438 -18689.162)" clip-path="url(#clip-path-2)">
      <g id="Group_55345" data-name="Group 55345" transform="translate(-18.426 -17.11)">
        <g transform="matrix(1, 0, 0, 1, 10.86, 12.27)" filter="url(#Rectangle_41409)">
          <rect id="Rectangle_41409-2" data-name="Rectangle 41409" width="60.544" height="60.544" rx="10" transform="translate(-10.86 -12.27)" fill="#f8f8f8"/>
        </g>
        <g id="Mask_Group_22668" data-name="Mask Group 22668" clip-path="url(#clip-path-3)">
          <rect id="Rectangle_41410" data-name="Rectangle 41410" width="60.544" height="60.544" rx="10" fill="#4064ec"/>
          <g transform="matrix(1, 0, 0, 1, 10.86, 12.27)" filter="url(#Subtraction_257)">
            <path id="Subtraction_257-2" data-name="Subtraction 257" d="M50.544,60.544H10a10.011,10.011,0,0,1-10-10V10A10.011,10.011,0,0,1,10,0H50.544a10.011,10.011,0,0,1,10,10V50.544A10.011,10.011,0,0,1,50.544,60.544ZM29.568,17.11a2.453,2.453,0,0,0-.821.139l-8.7,3.037a2.386,2.386,0,0,0-1.617,2.252l.056,8.734a10.861,10.861,0,0,0,2.814,7.2,11.146,11.146,0,0,0,3.219,2.391l4.739,2.452a1,1,0,0,0,.465.114h.008a1.025,1.025,0,0,0,.471-.119l4.7-2.51a11.124,11.124,0,0,0,3.188-2.428A10.844,10.844,0,0,0,40.8,31.144l-.056-8.74A2.382,2.382,0,0,0,39.1,20.172l-8.735-2.93A2.472,2.472,0,0,0,29.568,17.11Zm-.85,16.216h-.01a1,1,0,0,1-.695-.279l-2.522-2.426a.949.949,0,0,1-.01-1.368,1.014,1.014,0,0,1,1.406-.01L28.7,30.989l4.434-4.37a.994.994,0,0,1,.7-.287,1,1,0,0,1,.7.28.951.951,0,0,1,.008,1.368l-5.132,5.059A1,1,0,0,1,28.718,33.326Z" transform="translate(-10.86 -12.27)" fill="#f8f8f8"/>
          </g>
        </g>
        <g id="Rectangle_41413" data-name="Rectangle 41413" fill="none" stroke="#fff" stroke-width="1">
          <rect width="60.544" height="60.544" rx="10" stroke="none"/>
          <rect x="0.5" y="0.5" width="59.544" height="59.544" rx="9.5" fill="none"/>
        </g>
      </g>
    </g>
  </g>
</svg>
