<svg xmlns="http://www.w3.org/2000/svg" xmlns:xlink="http://www.w3.org/1999/xlink" width="36" height="36" viewBox="0 0 36 36">
  <defs>
    <clipPath id="clip-path">
      <path id="Path_84039" data-name="Path 84039" d="M23.037,14.864v8.186a1.169,1.169,0,0,1-1.169,1.169H5.506a1.169,1.169,0,0,1-1.169-1.169V14.864ZM16.609,2a4.093,4.093,0,0,1,3.7,5.848h3.9a1.169,1.169,0,0,1,1.169,1.169v3.508a1.169,1.169,0,0,1-1.169,1.169H3.169A1.169,1.169,0,0,1,2,12.525V9.017A1.169,1.169,0,0,1,3.169,7.848h3.9a4.091,4.091,0,0,1,6.62-4.619A4.066,4.066,0,0,1,16.609,2ZM10.765,4.339a1.754,1.754,0,0,0-.168,3.5l.168.008h1.753V6.093a1.754,1.754,0,0,0-1.585-1.746Zm5.844,0-.168.008a1.754,1.754,0,0,0-1.578,1.577l-.007.168V7.848h1.753l.168-.008a1.754,1.754,0,0,0,0-3.492Z" transform="translate(86 383.003)" fill="#fff"/>
    </clipPath>
    <filter id="Rectangle_29338" x="-14" y="-11" width="64" height="64" filterUnits="userSpaceOnUse">
      <feOffset dy="3" input="SourceAlpha"/>
      <feGaussianBlur stdDeviation="3" result="blur"/>
      <feFlood flood-opacity="0.161"/>
      <feComposite operator="in" in2="blur"/>
      <feComposite in="SourceGraphic"/>
    </filter>
    <clipPath id="clip-path-2">
      <rect id="Rectangle_29342" data-name="Rectangle 29342" width="46" height="46" rx="10" transform="translate(13 922)" fill="#fff"/>
    </clipPath>
    <filter id="Subtraction_153" x="-9.5" y="-8.5" width="55" height="55" filterUnits="userSpaceOnUse">
      <feOffset dy="1" input="SourceAlpha"/>
      <feGaussianBlur stdDeviation="1.5" result="blur-2"/>
      <feFlood flood-color="#101010"/>
      <feComposite operator="in" in2="blur-2"/>
      <feComposite in="SourceGraphic"/>
    </filter>
    <clipPath id="clip-path-3">
      <rect id="Rectangle_29360" data-name="Rectangle 29360" width="46" height="46" rx="10" transform="translate(-138 802)" fill="#fff"/>
    </clipPath>
    <filter id="Exclusion_8" x="-9.5" y="-8.5" width="55" height="55" filterUnits="userSpaceOnUse">
      <feOffset dy="1" input="SourceAlpha"/>
      <feGaussianBlur stdDeviation="1.5" result="blur-3"/>
      <feFlood flood-color="#101010"/>
      <feComposite operator="in" in2="blur-3"/>
      <feComposite in="SourceGraphic"/>
    </filter>
    <filter id="Exclusion_691" x="-6" y="-6" width="52" height="52" filterUnits="userSpaceOnUse">
      <feOffset dx="2" dy="2" input="SourceAlpha"/>
      <feGaussianBlur stdDeviation="1" result="blur-4"/>
      <feFlood flood-color="#00209a"/>
      <feComposite operator="in" in2="blur-4"/>
      <feComposite in="SourceGraphic"/>
    </filter>
  </defs>
  <g id="_11_uu_dai_active" data-name="11_uu_dai_active" transform="translate(-14 -376)">
    <g id="Mask_Group_22685" data-name="Mask Group 22685" transform="translate(-68 -2)" clip-path="url(#clip-path)">
      <g id="Group_55357" data-name="Group 55357" transform="translate(11639 4952)">
        <g transform="matrix(1, 0, 0, 1, -11557, -4574)" filter="url(#Rectangle_29338)">
          <rect id="Rectangle_29338-2" data-name="Rectangle 29338" width="46" height="46" rx="10" transform="translate(-5 -5)" fill="#fff"/>
        </g>
        <g id="Mask_Group_21302" data-name="Mask Group 21302" transform="translate(-11575 -5501)" clip-path="url(#clip-path-2)">
          <path id="Path_65108" data-name="Path 65108" d="M6,0H31a6,6,0,0,1,6,6V31a6,6,0,0,1-6,6H6a6,6,0,0,1-6-6V6A6,6,0,0,1,6,0Z" transform="translate(17 926)" fill="#2b4fd8"/>
          <g transform="matrix(1, 0, 0, 1, 18, 927)" filter="url(#Subtraction_153)">
            <path id="Subtraction_153-2" data-name="Subtraction 153" d="M36,46H10A10.011,10.011,0,0,1,0,36V10A10.011,10.011,0,0,1,10,0H36A10.011,10.011,0,0,1,46,10V36A10.011,10.011,0,0,1,36,46ZM11.5,16a.5.5,0,0,0-.5.5v4a.5.5,0,0,0,.5.5,2.5,2.5,0,0,1,0,5,.5.5,0,0,0-.5.5v4a.5.5,0,0,0,.5.5h23a.5.5,0,0,0,.5-.5v-4a.5.5,0,0,0-.5-.5,2.5,2.5,0,0,1,0-5,.5.5,0,0,0,.5-.5v-4a.5.5,0,0,0-.5-.5Zm17,13a.5.5,0,0,1-.5-.5v-2a.5.5,0,0,1,1,0v2A.5.5,0,0,1,28.5,29Zm-11,0a.5.5,0,0,1-.5-.5v-2a.5.5,0,0,1,1,0v2A.5.5,0,0,1,17.5,29Zm11-4a.5.5,0,0,1-.5-.5v-2a.5.5,0,1,1,1,0v2A.5.5,0,0,1,28.5,25Zm-11,0a.5.5,0,0,1-.5-.5v-2a.5.5,0,1,1,1,0v2A.5.5,0,0,1,17.5,25Zm11-4a.5.5,0,0,1-.5-.5v-2a.5.5,0,1,1,1,0v2A.5.5,0,0,1,28.5,21Zm-11,0a.5.5,0,0,1-.5-.5v-2a.5.5,0,1,1,1,0v2A.5.5,0,0,1,17.5,21Z" transform="translate(-5 -5)" fill="#f8f8f8"/>
          </g>
        </g>
        <g id="Mask_Group_21309" data-name="Mask Group 21309" transform="translate(-11424 -5381)" clip-path="url(#clip-path-3)">
          <rect id="Rectangle_29358" data-name="Rectangle 29358" width="46" height="46" rx="10" transform="translate(-138 802)" fill="#2b4fd8"/>
          <g transform="matrix(1, 0, 0, 1, -133, 807)" filter="url(#Exclusion_8)">
            <path id="Exclusion_8-2" data-name="Exclusion 8" d="M36,46H10A10.011,10.011,0,0,1,0,36V10A10.011,10.011,0,0,1,10,0H36A10.011,10.011,0,0,1,46,10V36A10.011,10.011,0,0,1,36,46ZM27.662,12.516V33.484H33.49a1.166,1.166,0,0,0,1.166-1.165V25.912a2.912,2.912,0,1,1,0-5.824V13.681a1.166,1.166,0,0,0-1.166-1.165Zm-15.152,0a1.166,1.166,0,0,0-1.165,1.165v6.407a2.912,2.912,0,1,1,0,5.824v6.407a1.166,1.166,0,0,0,1.165,1.165H25.331V12.516Z" transform="translate(-5 -5)" fill="#fff"/>
          </g>
        </g>
        <path id="Path_65128" data-name="Path 65128" d="M10,0H36A10,10,0,0,1,46,10V36A10,10,0,0,1,36,46H10A10,10,0,0,1,0,36V10A10,10,0,0,1,10,0Z" transform="translate(-11562 -4579)" fill="#4064ec"/>
        <g transform="matrix(1, 0, 0, 1, -11557, -4574)" filter="url(#Exclusion_691)">
          <path id="Exclusion_691-2" data-name="Exclusion 691" d="M36,46H10A10.011,10.011,0,0,1,0,36V10A10.011,10.011,0,0,1,10,0H36A10.011,10.011,0,0,1,46,10V36A10.011,10.011,0,0,1,36,46ZM13.337,24.867v8.186a1.171,1.171,0,0,0,1.169,1.17H30.868a1.171,1.171,0,0,0,1.169-1.17V24.867Zm-1.168-7.016A1.171,1.171,0,0,0,11,19.021v3.508A1.17,1.17,0,0,0,12.169,23.7H33.206a1.17,1.17,0,0,0,1.169-1.169V19.021a1.171,1.171,0,0,0-1.169-1.17l-3.9,0A4.093,4.093,0,0,0,25.612,12H25.6a4.089,4.089,0,0,0-2.911,1.229,4.091,4.091,0,0,0-6.62,4.62Zm13.441,0H23.856V16.1l.007-.168a1.755,1.755,0,0,1,1.578-1.577l.168-.009.168.009a1.754,1.754,0,0,1,0,3.491Zm-4.09,0H19.766l-.168-.008a1.754,1.754,0,0,1,.168-3.5l.168.009A1.746,1.746,0,0,1,21.519,16.1V17.85Z" transform="translate(-5 -5)" fill="#fff"/>
        </g>
      </g>
    </g>
    <rect id="Rectangle_41480" data-name="Rectangle 41480" width="36" height="36" transform="translate(14 376)" fill="none"/>
  </g>
</svg>
