<svg xmlns="http://www.w3.org/2000/svg" xmlns:xlink="http://www.w3.org/1999/xlink" width="36" height="36" viewBox="0 0 36 36">
  <defs>
    <clipPath id="clip-path">
      <path id="Union_728" data-name="Union 728" d="M8.934,18.93a10.15,10.15,0,0,0,10-10,7.443,7.443,0,0,1,3.059,10.434l1,3.623-3.623-1A7.443,7.443,0,0,1,8.934,18.93ZM4.323,16.364.032,17.55,1.22,13.26a8.784,8.784,0,1,1,3.1,3.1Zm3.794-2.829H9.466V12.186H8.117Zm2.023-6.79a1.334,1.334,0,0,1-.439,1L8.117,9.192v1.646H9.466V9.786l1.146-1.049A2.7,2.7,0,1,0,6.093,6.746H7.442a1.349,1.349,0,1,1,2.7,0Z" transform="translate(45.488 420.488)" fill="#fff"/>
    </clipPath>
    <filter id="Rectangle_41467" x="-14.488" y="-11.487" width="64" height="64" filterUnits="userSpaceOnUse">
      <feOffset dy="3" input="SourceAlpha"/>
      <feGaussianBlur stdDeviation="3" result="blur"/>
      <feFlood flood-opacity="0.161"/>
      <feComposite operator="in" in2="blur"/>
      <feComposite in="SourceGraphic"/>
    </filter>
    <filter id="Exclusion_698" x="-6.488" y="-6.487" width="52" height="52" filterUnits="userSpaceOnUse">
      <feOffset dx="2" dy="2" input="SourceAlpha"/>
      <feGaussianBlur stdDeviation="1" result="blur-2"/>
      <feFlood flood-color="#00209a"/>
      <feComposite operator="in" in2="blur-2"/>
      <feComposite in="SourceGraphic"/>
    </filter>
  </defs>
  <g id="_12_huong_dan_active" data-name="12_huong_dan_active" transform="translate(-14 -414)">
    <g id="Mask_Group_22686" data-name="Mask Group 22686" transform="translate(-25.488 -0.487)" clip-path="url(#clip-path)">
      <g id="Group_55377" data-name="Group 55377" transform="translate(23.488 0.488)">
        <g id="Group_55366" data-name="Group 55366" transform="translate(11583.512 4977.512)">
          <g transform="matrix(1, 0, 0, 1, -11567.51, -4563.51)" filter="url(#Rectangle_41467)">
            <rect id="Rectangle_41467-2" data-name="Rectangle 41467" width="46" height="46" rx="10" transform="translate(-5.49 -5.49)" fill="#fff"/>
          </g>
          <path id="Path_84042" data-name="Path 84042" d="M10,0H36A10,10,0,0,1,46,10V36A10,10,0,0,1,36,46H10A10,10,0,0,1,0,36V10A10,10,0,0,1,10,0Z" transform="translate(-11573 -4569)" fill="#4064ec"/>
          <g transform="matrix(1, 0, 0, 1, -11567.51, -4563.51)" filter="url(#Exclusion_698)">
            <path id="Exclusion_698-2" data-name="Exclusion 698" d="M36,46H10A10.011,10.011,0,0,1,0,36V10A10.011,10.011,0,0,1,10,0H36A10.011,10.011,0,0,1,46,10V36A10.011,10.011,0,0,1,36,46ZM30.418,20.423a10.15,10.15,0,0,1-10,10,7.443,7.443,0,0,0,10.434,3.059l3.623,1-1-3.623a7.452,7.452,0,0,0-3.059-10.434ZM15.811,27.852h0a8.792,8.792,0,1,0-3.1-3.1l-1.187,4.29,4.29-1.186Zm5.144-2.829H19.606V23.674h1.349v1.348Zm0-2.7H19.606V20.68l1.584-1.451a1.334,1.334,0,0,0,.439-1,1.349,1.349,0,0,0-2.7,0H17.582A2.7,2.7,0,1,1,22.1,20.225l-1.146,1.049v1.051Z" transform="translate(-5.49 -5.49)" fill="#fff"/>
          </g>
        </g>
        <rect id="Rectangle_41474" data-name="Rectangle 41474" width="36" height="36" transform="translate(16 414)" fill="none"/>
      </g>
    </g>
    <rect id="Rectangle_41481" data-name="Rectangle 41481" width="36" height="36" transform="translate(14 414)" fill="none"/>
  </g>
</svg>
